<svg width="32" height="30" viewBox="0 0 32 30" fill="none" xmlns="http://www.w3.org/2000/svg">
<path d="M15.8789 4L10.5903 9.24153C7.65652 12.1753 7.65652 16.932 10.5903 19.8658L15.975 25.2026M31 10.2275V17.6901C31 21.8391 27.6365 25.2026 23.4875 25.2026H15.975M15.975 25.2026V25.206M15.975 25.2026L8.46253 25.1561C4.3411 25.1561 1 21.815 1 17.6935V10.231H8.46253C8.86073 10.231 9.25163 10.2622 9.63295 10.3223M22.0689 10.2605C22.0794 10.2755 22.0897 10.2904 22.1001 10.3055C22.118 10.3021 22.1359 10.2988 22.1538 10.2956M9.7501 10.2403C9.73951 10.2554 9.72899 10.2705 9.71852 10.2856C9.70039 10.2826 9.68223 10.2796 9.66405 10.2767M22.0153 10.2709C21.77 9.92174 21.4914 9.58891 21.1793 9.27684L15.9024 4M16.025 17.6901C16.025 14.0508 18.6301 11.0199 22.0773 10.3606C24.0542 13.2649 23.8255 17.3254 21.2499 19.9011L16.025 25.126V25.1526M16.025 17.6901C16.025 14.0047 13.2536 10.9468 9.74156 10.3402M16.025 17.6901L15.975 25.1526M22.1845 10.3409C22.6076 10.2664 23.043 10.2275 23.4875 10.2275H30.9501M15.9251 25.0846L15.9024 25.1073" stroke="#ED7276" stroke-linecap="square" stroke-linejoin="bevel"/>
</svg>
