<svg width="30" height="30" viewBox="0 0 30 30" fill="none" xmlns="http://www.w3.org/2000/svg">
<path d="M0.517688 17.8932L0.0201067 17.8446L0.517688 17.8932C0.57205 17.337 1.10762 16.8343 2.28713 16.4594C3.42094 16.099 4.93789 15.9314 6.49312 15.8935C8.04112 15.8558 9.59164 15.9474 10.7746 16.0878C11.3671 16.1581 11.8575 16.2396 12.2046 16.3204C12.3188 16.347 12.4117 16.3722 12.4844 16.395C12.4831 16.4008 12.4817 16.4067 12.4803 16.4128C12.4414 16.5763 12.3601 16.8052 12.2319 17.091C11.977 17.6588 11.5631 18.3921 11.0313 19.1703C9.9604 20.7373 8.46589 22.4071 6.92389 23.2744C5.54209 24.0516 3.89964 23.6011 2.56572 22.424C1.23104 21.2462 0.363975 19.4659 0.517688 17.8932ZM12.5049 16.2458C12.505 16.2458 12.5052 16.2473 12.5053 16.2507C12.5049 16.2475 12.5049 16.2459 12.5049 16.2458ZM10.3235 28.6494L10.0386 29.0603L10.3235 28.6494C9.84988 28.321 9.67605 27.6218 9.93007 26.4506C10.1756 25.3185 10.7832 23.9581 11.5267 22.6279C12.2665 21.3044 13.1224 20.0432 13.838 19.1162C14.1965 18.6519 14.5136 18.2796 14.7583 18.0279C14.8436 17.9401 14.9155 17.8718 14.9737 17.8212C14.9837 17.8298 14.9943 17.8392 15.0056 17.8494C15.1325 17.965 15.296 18.1488 15.486 18.3999C15.8635 18.8992 16.3085 19.6152 16.7343 20.4527C17.5923 22.1405 18.3275 24.2333 18.3275 25.9619C18.3275 27.4937 17.1231 28.6521 15.4008 29.1918C13.6833 29.7299 11.6555 29.5729 10.3235 28.6494ZM14.863 17.7409C14.8629 17.7408 14.8643 17.7414 14.8671 17.7428C14.8644 17.7417 14.863 17.741 14.863 17.7409ZM26.4134 17.6878L26.6425 17.2805L26.4134 17.6878C27.7873 18.4605 28.205 20.0561 27.8273 21.7623C27.4492 23.47 26.3019 25.0975 24.8152 25.7594C24.2735 26.0006 23.5501 25.7866 22.635 24.9858C21.7495 24.211 20.8434 23.017 20.0329 21.725C19.2261 20.4391 18.533 19.0865 18.0669 18.0197C17.8335 17.4852 17.6612 17.032 17.56 16.7004C17.5282 16.5962 17.5051 16.5094 17.4893 16.4395C17.4983 16.4366 17.5077 16.4337 17.5177 16.4308C17.6852 16.381 17.9317 16.3348 18.2509 16.3C18.8853 16.2309 19.746 16.2135 20.7049 16.2732C22.6361 16.3933 24.8704 16.8199 26.4134 17.6878ZM17.3524 16.4947C17.3498 16.4967 17.3483 16.4976 17.3482 16.4976C17.3481 16.4975 17.3494 16.4966 17.3524 16.4947ZM17.4137 16.4221L17.4137 16.4221L17.4137 16.4221ZM19.6763 1.35059L19.9612 0.939689L19.6764 1.35059C20.15 1.67897 20.3238 2.37821 20.0698 3.54945C19.8243 4.6815 19.2166 6.0419 18.4731 7.37209C17.7334 8.6956 16.8775 9.95687 16.1618 10.8838C15.8033 11.3481 15.4863 11.7204 15.2416 11.9722C15.1562 12.0599 15.0843 12.1282 15.0262 12.1788C15.0162 12.1702 15.0055 12.1609 14.9943 12.1506C14.8673 12.035 14.7038 11.8513 14.5139 11.6001C14.1363 11.1008 13.6914 10.3848 13.2656 9.54729C12.4076 7.85955 11.6724 5.76675 11.6724 4.03819C11.6724 2.50625 12.8767 1.34787 14.5991 0.808224C16.3166 0.27009 18.3444 0.427085 19.6763 1.35059ZM15.1369 12.2591C15.1369 12.2592 15.1356 12.2586 15.1328 12.2572C15.1355 12.2583 15.1369 12.259 15.1369 12.2591ZM12.5106 13.561C12.5017 13.5638 12.4922 13.5667 12.4823 13.5696C12.3147 13.6194 12.0683 13.6656 11.7491 13.7004C11.1146 13.7695 10.254 13.7869 9.29509 13.7273C7.36382 13.6071 5.12956 13.1805 3.5865 12.3126C2.21266 11.5399 1.79492 9.94433 2.17267 8.23809C2.55074 6.53044 3.6981 4.90288 5.18474 4.24101C5.72646 3.99983 6.4498 4.21382 7.36492 5.01456C8.25041 5.78939 9.15654 6.98338 9.96706 8.27538C10.7738 9.56132 11.467 10.9139 11.933 11.9808C12.1665 12.5152 12.3387 12.9685 12.44 13.3001C12.4718 13.4042 12.4949 13.491 12.5106 13.561ZM12.6476 13.5057C12.6502 13.5037 12.6518 13.5028 12.6518 13.5029C12.6518 13.5029 12.6505 13.5039 12.6476 13.5057ZM17.495 13.7542C17.4949 13.7542 17.4948 13.7527 17.4947 13.7494C17.495 13.7525 17.4951 13.7541 17.495 13.7542ZM17.5155 13.605C17.5168 13.5992 17.5182 13.5933 17.5196 13.5872C17.5586 13.4237 17.6398 13.1948 17.7681 12.909C18.023 12.3412 18.4368 11.6079 18.9687 10.8297C20.0395 9.26265 21.534 7.59286 23.076 6.72555C24.4579 5.94837 26.1003 6.3989 27.4343 7.57601C28.7689 8.75379 29.636 10.5341 29.4823 12.1068C29.428 12.663 28.8924 13.1657 27.7129 13.5406C26.579 13.901 25.0621 14.0687 23.5068 14.1065C21.9588 14.1442 20.4083 14.0527 19.2254 13.9122C18.6328 13.8419 18.1424 13.7604 17.7953 13.6796C17.6812 13.653 17.5883 13.6278 17.5155 13.605Z" stroke="#8B5CF6"/>
</svg>
