<svg width="30" height="30" viewBox="0 0 30 30" fill="none" xmlns="http://www.w3.org/2000/svg">
<path d="M15.5575 18.7853H14.4456V29.9748H15.5575V18.7853Z" fill="#00501E"/>
<path fill-rule="evenodd" clip-rule="evenodd" d="M20.5562 5.09388C21.7572 4.04867 23.0966 3.65154 24.3804 3.75195C25.75 3.85907 27.0181 4.52859 27.9657 5.50206C28.9132 6.47553 29.5648 7.77837 29.6692 9.1854C29.7745 10.6055 29.3184 12.092 28.1179 13.3956C28.0081 13.5156 27.8959 13.634 27.7815 13.751C25.0466 16.5604 21.8622 17.9593 19.3735 18.6566C18.1277 19.0057 17.0509 19.1805 16.283 19.2682C15.8988 19.312 15.5913 19.3341 15.3778 19.3453C15.2711 19.3508 15.1877 19.3537 15.1301 19.3551C15.1012 19.3559 15.0788 19.3562 15.063 19.3564C15.0551 19.3565 15.0489 19.3566 15.0444 19.3566L15.0389 19.3566L15.0371 19.3566H15.0364C15.0364 19.3566 15.0359 19.3566 15.0359 18.7854C15.0359 19.3566 15.0354 19.3566 15.0354 19.3566H15.0348L15.033 19.3566L15.0275 19.3566C15.0249 19.3566 15.0217 19.3566 15.018 19.3565C15.0152 19.3565 15.0122 19.3565 15.0089 19.3564C14.9931 19.3562 14.9707 19.3559 14.9418 19.3551C14.8841 19.3537 14.8008 19.3508 14.6941 19.3453C14.4806 19.3341 14.1731 19.312 13.789 19.2681C13.0212 19.1805 11.9445 19.0057 10.6989 18.6566C8.21021 17.9593 5.02579 16.5602 2.29081 13.7503L2.28961 13.7491C2.17697 13.6327 2.06601 13.5155 1.95674 13.3975L1.95585 13.3965C0.754747 12.094 0.298149 10.6079 0.403121 9.18774C0.507103 7.78096 1.15835 6.47795 2.10557 5.50414C3.0528 4.53032 4.32077 3.86027 5.69058 3.75269C6.97438 3.65187 8.31407 4.04854 9.51581 5.09328C9.64589 3.48223 10.3196 2.22866 11.2963 1.36716C12.3385 0.447887 13.696 0 15.036 0C16.376 0 17.7334 0.447887 18.7756 1.36716C19.7524 2.22876 20.4262 3.48253 20.5562 5.09388ZM9.35164 6.49984C9.24477 6.39106 9.13473 6.28107 9.02739 6.17681C7.97718 5.15658 6.83496 4.80858 5.77533 4.8918C4.70269 4.97603 3.67564 5.50618 2.89211 6.31169C2.10857 7.11722 1.59332 8.17268 1.5119 9.27424C1.43148 10.3622 1.77045 11.5341 2.76259 12.6103C2.86599 12.7219 2.97105 12.8329 3.07777 12.9432C5.63666 15.5719 8.6279 16.8921 10.9915 17.5545C12.1721 17.8853 13.1908 18.0504 13.9118 18.1327C14.2721 18.1738 14.5574 18.1942 14.7506 18.2043C14.8471 18.2094 14.9206 18.2118 14.9689 18.213C14.9931 18.2136 15.0109 18.2139 15.0222 18.2141C15.0265 18.2141 15.0298 18.2142 15.0322 18.2142L15.0341 18.2142L15.0354 18.2142H15.0364L15.0378 18.2142C15.0391 18.2142 15.0409 18.2142 15.0432 18.2141C15.0451 18.2141 15.0472 18.2141 15.0497 18.2141C15.0552 18.214 15.0622 18.2139 15.0707 18.2137C15.0797 18.2136 15.0905 18.2134 15.1029 18.213C15.1512 18.2118 15.2248 18.2094 15.3214 18.2043C15.5146 18.1942 15.7999 18.1738 16.1602 18.1327C16.8813 18.0504 17.9001 17.8853 19.0809 17.5545C21.445 16.8921 24.4368 15.5716 26.9959 12.9425L26.9969 12.9414C27.103 12.833 27.2068 12.7233 27.3084 12.6124L27.3096 12.6111C28.3022 11.5334 28.6411 10.3606 28.5604 9.27219C28.4787 8.17039 27.9631 7.11509 27.1794 6.30988C26.3956 5.50466 25.3685 4.97496 24.296 4.89108C23.2366 4.80822 22.0949 5.15649 21.0457 6.17662L21.0447 6.17759L21.0437 6.17856C20.9319 6.28618 20.8259 6.38948 20.7284 6.49239L20.7266 6.49428L20.7248 6.49615C20.6549 6.56864 20.5905 6.63867 20.5214 6.71389C20.4893 6.74878 20.4562 6.78478 20.421 6.82267L19.4626 7.85537V6.4285C19.4626 6.34278 19.4651 6.25743 19.4673 6.18198L19.4674 6.17899C19.4697 6.09973 19.4717 6.03105 19.4717 5.96529C19.4717 5.81123 19.4716 5.65727 19.4653 5.51473L19.465 5.50953L19.4649 5.50434C19.4251 4.02078 18.8575 2.94507 18.0513 2.23395C17.2352 1.5141 16.1443 1.14243 15.036 1.14243C13.9276 1.14243 12.8367 1.5141 12.0206 2.23395C11.2146 2.94498 10.647 4.02052 10.6071 5.50379C10.6032 5.65654 10.6012 5.81038 10.6012 5.96529C10.6012 6.08925 10.6046 6.2113 10.6081 6.34056C10.6088 6.36439 10.6094 6.38847 10.6101 6.41284L10.6503 7.92014L9.64813 6.81855C9.63848 6.80794 9.62893 6.79744 9.61946 6.78702C9.5269 6.6852 9.44221 6.59204 9.35164 6.49984Z" fill="#00501E"/>
<path fill-rule="evenodd" clip-rule="evenodd" d="M10.9023 11.0615C9.39939 11.0615 8.29016 12.1231 8.29016 13.3058H7.48145C7.48145 11.5494 9.0733 10.2306 10.9023 10.2306C12.7313 10.2306 14.323 11.5495 14.323 13.3058H13.5143C13.5143 12.1231 12.4052 11.0615 10.9023 11.0615Z" fill="#00501E"/>
<path fill-rule="evenodd" clip-rule="evenodd" d="M19.125 11.0272C17.6222 11.0272 16.5129 12.0897 16.5129 13.2715H15.7042C15.7042 11.5163 17.2959 10.1963 19.125 10.1963C20.954 10.1963 22.5458 11.5163 22.5458 13.2715H21.7371C21.7371 12.0897 20.6277 11.0272 19.125 11.0272Z" fill="#00501E"/>
<path d="M9.95697 13.3223C10.5996 13.3223 11.1205 12.7871 11.1205 12.1269C11.1205 11.4667 10.5996 10.9315 9.95697 10.9315C9.31437 10.9315 8.79344 11.4667 8.79344 12.1269C8.79344 12.7871 9.31437 13.3223 9.95697 13.3223Z" fill="#00501E"/>
<path d="M18.1249 13.3223C18.7675 13.3223 19.2885 12.7871 19.2885 12.1269C19.2885 11.4667 18.7675 10.9315 18.1249 10.9315C17.4823 10.9315 16.9614 11.4667 16.9614 12.1269C16.9614 12.7871 17.4823 13.3223 18.1249 13.3223Z" fill="#00501E"/>
<path fill-rule="evenodd" clip-rule="evenodd" d="M15.0328 16.2679C14.3263 16.2679 13.7483 16.6398 13.4927 17.1173L12.7841 16.7168C13.1956 15.9482 14.0611 15.4371 15.0328 15.4371C16.0028 15.4371 16.8699 15.9416 17.2822 16.7181L16.5722 17.116C16.3172 16.6357 15.7408 16.2679 15.0328 16.2679Z" fill="#00501E"/>
<path d="M11.4402 24.8362C9.54078 25.716 7.12982 25.4074 5.38404 24.1093L4.73807 25.0398C6.01716 25.9724 7.54681 26.4732 9.1152 26.4731C10.0744 26.4792 11.0239 26.2763 11.9012 25.878C14.2262 24.8009 15.5596 22.4194 15.5596 19.3442H14.4476C14.4456 21.9895 13.3791 23.9399 11.4402 24.8362Z" fill="#00501E"/>
<path d="M14.4456 18.9286V19.5788C14.4456 21.4129 13.7541 23.4339 12.5966 24.9867C11.1789 26.8185 9.1919 28.0948 6.96802 28.6019C4.78472 29.1046 2.50078 28.8488 0.474105 27.875L0 28.9135C2.25061 29.9954 4.7871 30.2792 7.21165 29.7204C9.68551 29.1561 11.895 27.7342 13.469 25.6939L13.4761 25.6855C14.7792 23.9398 15.5575 21.657 15.5575 19.5777V18.9275L14.4456 18.9286Z" fill="#00501E"/>
<path d="M29.5259 27.8748C27.4992 28.8488 25.2153 29.1046 23.032 28.6019C20.8086 28.094 18.8222 26.8179 17.4044 24.9867C16.247 23.4339 15.5565 21.4129 15.5565 19.5788V18.9286H14.4445V19.5788C14.4445 21.6559 15.2219 23.9407 16.5259 25.6866L16.5329 25.695C18.1075 27.7335 20.3164 29.1538 22.7893 29.7173C25.2133 30.2763 27.7491 29.9936 30 28.9135L29.5259 27.8748Z" fill="#00501E"/>
<path d="M24.613 24.1109C22.8673 25.407 20.4563 25.7155 18.5568 24.8379C16.621 23.9416 15.5546 21.9912 15.5546 19.3459H14.4426C14.4426 22.4212 15.776 24.8026 18.0999 25.8796C18.9773 26.2779 19.9267 26.4806 20.8859 26.4747C22.4539 26.4746 23.9832 25.9738 25.262 25.0414L24.613 24.1109Z" fill="#00501E"/>
</svg>
