<svg width="80" height="110" viewBox="0 0 80 110" fill="none" xmlns="http://www.w3.org/2000/svg">
<mask id="path-1-inside-1_1_90" fill="white">
<path d="M34.7203 0.0429886C34.5316 0.0601429 33.8798 0.145906 33.2622 0.248832C32.0443 0.437529 31.9242 0.497576 29.9772 1.76699C28.5019 2.72764 27.5498 3.73974 27.0781 4.8462L26.8551 5.3694L26.5549 5.18928C25.9287 4.82046 24.8566 4.70038 23.6987 4.87192C23.3899 4.91481 22.232 5.19786 21.1255 5.49806C20.0191 5.80684 18.844 6.10703 18.5095 6.16707C17.9949 6.27 17.8062 6.35577 17.2229 6.80178C16.2794 7.51369 14.9929 8.80026 14.3582 9.66655C13.7149 10.5586 13.1402 11.6993 12.84 12.72C12.6256 13.4319 12.6084 13.612 12.6084 14.9501C12.6084 16.2624 12.6256 16.494 12.8314 17.2402C13.2603 18.8184 13.8607 20.105 14.9157 21.7175C17.2401 25.2598 21.563 29.2739 27.2582 33.1765C27.9787 33.6654 28.4333 34.0257 28.2875 33.9828C28.1502 33.9485 27.8586 33.9142 27.6442 33.9142C27.3097 33.9056 27.2582 33.9313 27.2582 34.0771C27.2582 34.1715 27.1896 34.3002 27.1038 34.3602C26.898 34.5232 27.0266 34.729 27.5584 35.0721C27.79 35.2265 27.9873 35.3551 27.9873 35.3637C27.9873 35.3723 27.5756 35.2694 27.0695 35.1407C22.0519 33.8627 17.3173 33.1765 13.5262 33.1765C5.7467 33.168 1.30373 35.9041 0.24016 41.3248C0.162966 41.728 0.0771944 42.6972 0.0514629 43.4863L0 44.9272L0.223006 45.2618C0.351663 45.4505 0.857716 46.3682 1.36377 47.3031C1.86124 48.238 2.44449 49.2501 2.6675 49.5589C3.25932 50.3909 4.09988 51.1886 4.76032 51.5317C5.08625 51.6946 5.33499 51.849 5.31784 51.8747C4.53732 53.2042 4.48585 54.3535 5.07768 57.3641C5.26637 58.3333 5.46365 59.3111 5.50654 59.5513C5.558 59.7829 5.61804 60.246 5.65235 60.5806C5.71239 61.241 5.88393 61.5498 6.91319 62.8535C10.5842 67.5452 14.9757 68.6602 19.9333 66.1557C22.7895 64.7147 25.1825 62.6734 28.7764 58.6164L29.068 58.2819L28.1931 61.7899C26.2718 69.5094 25.3884 74.5699 25.0625 79.7419C24.9424 81.7747 25.0024 85.7202 25.1911 87.4699C25.8258 93.2595 27.4555 98.4316 30.2087 103.381C31.1694 105.096 31.3838 105.722 31.7612 107.841C32.0871 109.693 32.4474 110.079 33.408 109.59C34.6603 108.947 35.6467 107.266 35.6381 105.774C35.6295 104.924 35.5009 104.564 34.8147 103.552C33.0221 100.893 32.2587 99.6238 31.2895 97.6339C28.7678 92.4618 27.5584 87.1783 27.5584 81.2944C27.5584 73.3862 29.6255 65.1608 34.3258 54.4565C34.849 53.2728 35.2778 52.2607 35.2778 52.2264C35.2778 52.1835 35.3293 52.1063 35.3979 52.0549C35.4923 51.9777 35.4837 52.0634 35.3636 52.4494C35.0806 53.3586 34.24 57.2698 33.9484 59.0195C33.1764 63.7026 33.0478 67.6052 33.571 70.6587C34.5659 76.5083 37.6194 79.5532 42.8686 79.9135C44.4726 80.025 45.7934 79.9306 47.7576 79.5704C48.6496 79.3988 48.7354 79.3645 49.3015 78.9357C49.636 78.6869 50.5109 78.0694 51.2485 77.5633C53.3413 76.1395 54.1905 75.3504 54.8766 74.2097C55.0482 73.9352 55.2455 73.5149 55.3141 73.2747L55.4513 72.8373L55.8716 73.0346C56.6607 73.412 58.0673 73.4377 59.3368 73.1032C59.6198 73.026 60.7005 72.7001 61.7384 72.3827C62.7762 72.0568 63.8912 71.7223 64.2086 71.6365C64.749 71.4993 64.8262 71.4478 65.2293 70.9675C66.6102 69.3121 67.365 67.5967 67.5194 65.7354C67.6652 63.9171 67.3135 62.2788 66.3272 60.2375C64.3544 56.1633 59.7999 51.6003 52.9897 46.9C52.2863 46.4111 51.6688 45.9908 51.6345 45.9565C51.6002 45.9222 51.7975 45.9565 52.0805 46.0251C52.6981 46.1709 52.9039 46.128 52.8267 45.8364C52.7924 45.682 52.8181 45.622 52.9468 45.5877C53.0411 45.562 53.1183 45.5019 53.1183 45.459C53.1183 45.3733 52.698 44.9787 52.3464 44.7385C52.1577 44.6185 52.2092 44.6185 52.7752 44.7643C54.3191 45.1588 57.1239 45.7678 58.6935 46.0337C61.7212 46.5569 64.0027 46.7628 66.6702 46.7542C69.4064 46.7456 71.0017 46.5483 72.8372 45.9994C76.4911 44.9101 78.764 42.7143 79.6475 39.4379C79.9563 38.3057 80.0077 37.7567 79.9991 35.8783L79.9906 33.9914L79.6046 33.391C79.3902 33.0565 78.8755 32.1644 78.4724 31.3925C77.426 29.4197 77.0486 28.8622 76.1995 28.0302C75.5991 27.4384 74.87 26.9238 74.4154 26.778C74.3983 26.778 74.5012 26.5636 74.6384 26.3062C75.256 25.1741 75.2388 23.7674 74.587 20.8683C74.4755 20.3451 74.3039 19.556 74.2267 19.1014C74.0723 18.2952 74.0552 18.2523 73.4462 17.4289C72.6399 16.3482 71.0189 14.7271 70.1783 14.161C68.48 13.0116 66.9447 12.5142 65.1178 12.5056C60.8892 12.497 56.1032 15.6363 50.9312 21.829C49.5159 23.5272 48.135 25.3799 46.0679 28.3733C45.9307 28.5792 45.9307 28.5706 46.0508 28.1846C46.2309 27.6443 46.188 27.2154 45.9564 27.2154C45.8621 27.2154 45.7334 27.1468 45.6734 27.061C45.5104 26.8466 45.2702 27.001 44.9529 27.5242C44.8071 27.7558 44.6784 27.9445 44.6698 27.9445C44.6527 27.9445 44.7985 27.3526 44.9786 26.6322C45.6819 23.8875 46.3424 20.2336 46.6597 17.3946C46.8656 15.4733 46.8656 11.4935 46.6512 9.97533C45.802 3.88555 42.9115 0.65196 37.8081 0.0687138C37.0876 -0.00848065 35.5009 -0.0256287 34.7203 0.0429886Z"/>
</mask>
<path d="M34.7203 0.0429886C34.5316 0.0601429 33.8798 0.145906 33.2622 0.248832C32.0443 0.437529 31.9242 0.497576 29.9772 1.76699C28.5019 2.72764 27.5498 3.73974 27.0781 4.8462L26.8551 5.3694L26.5549 5.18928C25.9287 4.82046 24.8566 4.70038 23.6987 4.87192C23.3899 4.91481 22.232 5.19786 21.1255 5.49806C20.0191 5.80684 18.844 6.10703 18.5095 6.16707C17.9949 6.27 17.8062 6.35577 17.2229 6.80178C16.2794 7.51369 14.9929 8.80026 14.3582 9.66655C13.7149 10.5586 13.1402 11.6993 12.84 12.72C12.6256 13.4319 12.6084 13.612 12.6084 14.9501C12.6084 16.2624 12.6256 16.494 12.8314 17.2402C13.2603 18.8184 13.8607 20.105 14.9157 21.7175C17.2401 25.2598 21.563 29.2739 27.2582 33.1765C27.9787 33.6654 28.4333 34.0257 28.2875 33.9828C28.1502 33.9485 27.8586 33.9142 27.6442 33.9142C27.3097 33.9056 27.2582 33.9313 27.2582 34.0771C27.2582 34.1715 27.1896 34.3002 27.1038 34.3602C26.898 34.5232 27.0266 34.729 27.5584 35.0721C27.79 35.2265 27.9873 35.3551 27.9873 35.3637C27.9873 35.3723 27.5756 35.2694 27.0695 35.1407C22.0519 33.8627 17.3173 33.1765 13.5262 33.1765C5.7467 33.168 1.30373 35.9041 0.24016 41.3248C0.162966 41.728 0.0771944 42.6972 0.0514629 43.4863L0 44.9272L0.223006 45.2618C0.351663 45.4505 0.857716 46.3682 1.36377 47.3031C1.86124 48.238 2.44449 49.2501 2.6675 49.5589C3.25932 50.3909 4.09988 51.1886 4.76032 51.5317C5.08625 51.6946 5.33499 51.849 5.31784 51.8747C4.53732 53.2042 4.48585 54.3535 5.07768 57.3641C5.26637 58.3333 5.46365 59.3111 5.50654 59.5513C5.558 59.7829 5.61804 60.246 5.65235 60.5806C5.71239 61.241 5.88393 61.5498 6.91319 62.8535C10.5842 67.5452 14.9757 68.6602 19.9333 66.1557C22.7895 64.7147 25.1825 62.6734 28.7764 58.6164L29.068 58.2819L28.1931 61.7899C26.2718 69.5094 25.3884 74.5699 25.0625 79.7419C24.9424 81.7747 25.0024 85.7202 25.1911 87.4699C25.8258 93.2595 27.4555 98.4316 30.2087 103.381C31.1694 105.096 31.3838 105.722 31.7612 107.841C32.0871 109.693 32.4474 110.079 33.408 109.59C34.6603 108.947 35.6467 107.266 35.6381 105.774C35.6295 104.924 35.5009 104.564 34.8147 103.552C33.0221 100.893 32.2587 99.6238 31.2895 97.6339C28.7678 92.4618 27.5584 87.1783 27.5584 81.2944C27.5584 73.3862 29.6255 65.1608 34.3258 54.4565C34.849 53.2728 35.2778 52.2607 35.2778 52.2264C35.2778 52.1835 35.3293 52.1063 35.3979 52.0549C35.4923 51.9777 35.4837 52.0634 35.3636 52.4494C35.0806 53.3586 34.24 57.2698 33.9484 59.0195C33.1764 63.7026 33.0478 67.6052 33.571 70.6587C34.5659 76.5083 37.6194 79.5532 42.8686 79.9135C44.4726 80.025 45.7934 79.9306 47.7576 79.5704C48.6496 79.3988 48.7354 79.3645 49.3015 78.9357C49.636 78.6869 50.5109 78.0694 51.2485 77.5633C53.3413 76.1395 54.1905 75.3504 54.8766 74.2097C55.0482 73.9352 55.2455 73.5149 55.3141 73.2747L55.4513 72.8373L55.8716 73.0346C56.6607 73.412 58.0673 73.4377 59.3368 73.1032C59.6198 73.026 60.7005 72.7001 61.7384 72.3827C62.7762 72.0568 63.8912 71.7223 64.2086 71.6365C64.749 71.4993 64.8262 71.4478 65.2293 70.9675C66.6102 69.3121 67.365 67.5967 67.5194 65.7354C67.6652 63.9171 67.3135 62.2788 66.3272 60.2375C64.3544 56.1633 59.7999 51.6003 52.9897 46.9C52.2863 46.4111 51.6688 45.9908 51.6345 45.9565C51.6002 45.9222 51.7975 45.9565 52.0805 46.0251C52.6981 46.1709 52.9039 46.128 52.8267 45.8364C52.7924 45.682 52.8181 45.622 52.9468 45.5877C53.0411 45.562 53.1183 45.5019 53.1183 45.459C53.1183 45.3733 52.698 44.9787 52.3464 44.7385C52.1577 44.6185 52.2092 44.6185 52.7752 44.7643C54.3191 45.1588 57.1239 45.7678 58.6935 46.0337C61.7212 46.5569 64.0027 46.7628 66.6702 46.7542C69.4064 46.7456 71.0017 46.5483 72.8372 45.9994C76.4911 44.9101 78.764 42.7143 79.6475 39.4379C79.9563 38.3057 80.0077 37.7567 79.9991 35.8783L79.9906 33.9914L79.6046 33.391C79.3902 33.0565 78.8755 32.1644 78.4724 31.3925C77.426 29.4197 77.0486 28.8622 76.1995 28.0302C75.5991 27.4384 74.87 26.9238 74.4154 26.778C74.3983 26.778 74.5012 26.5636 74.6384 26.3062C75.256 25.1741 75.2388 23.7674 74.587 20.8683C74.4755 20.3451 74.3039 19.556 74.2267 19.1014C74.0723 18.2952 74.0552 18.2523 73.4462 17.4289C72.6399 16.3482 71.0189 14.7271 70.1783 14.161C68.48 13.0116 66.9447 12.5142 65.1178 12.5056C60.8892 12.497 56.1032 15.6363 50.9312 21.829C49.5159 23.5272 48.135 25.3799 46.0679 28.3733C45.9307 28.5792 45.9307 28.5706 46.0508 28.1846C46.2309 27.6443 46.188 27.2154 45.9564 27.2154C45.8621 27.2154 45.7334 27.1468 45.6734 27.061C45.5104 26.8466 45.2702 27.001 44.9529 27.5242C44.8071 27.7558 44.6784 27.9445 44.6698 27.9445C44.6527 27.9445 44.7985 27.3526 44.9786 26.6322C45.6819 23.8875 46.3424 20.2336 46.6597 17.3946C46.8656 15.4733 46.8656 11.4935 46.6512 9.97533C45.802 3.88555 42.9115 0.65196 37.8081 0.0687138C37.0876 -0.00848065 35.5009 -0.0256287 34.7203 0.0429886Z" stroke="#2A4E31" stroke-width="4" mask="url(#path-1-inside-1_1_90)"/>
</svg>
