<svg width="32" height="32" viewBox="0 0 32 32" fill="none" xmlns="http://www.w3.org/2000/svg">
    <path d="M16 1C7.71573 1 1 7.71573 1 16C1 24.2843 7.71573 31 16 31C24.2843 31 31 24.2843 31 16C31 7.71573 24.2843 1 16 1ZM16 1C11.1773 1 6.88609 3.27601 4.14205 6.8125C6.88609 8.9344 11.1773 10.3 16 10.3C20.8227 10.3 25.1139 8.9344 27.858 6.8125C25.1139 3.27601 20.8227 1 16 1ZM1 15.85H31M15.85 31V1M28.0159 25.1875C25.2719 28.724 20.9807 31 16.1579 31C11.3352 31 7.04404 28.724 4.29999 25.1875C7.04404 23.0656 11.3352 21.7 16.1579 21.7C20.9807 21.7 25.2719 23.0656 28.0159 25.1875ZM15.7 1C20.6706 1 24.7 7.71573 24.7 16C24.7 24.2843 20.6706 31 15.7 31C10.7294 31 6.7 24.2843 6.7 16C6.7 7.71573 10.7294 1 15.7 1Z" stroke="#8FBDD3" />
</svg>